# 3ds Max Wavefront OBJ Exporter v0.97b - (c)2007 guruware
# File Created: 28.12.2019 13:36:57

mtllib chedaotongxing.mtl

#
# object chedao01
#

v  -6.0001 -416.4438 -68.3000
v  -6.0001 -416.4438 68.2804
v  -5.0001 -416.4438 68.2804
v  -5.0001 -416.4438 -68.3000
v  -6.0000 -722.6509 -68.3000
v  -5.0000 -722.6509 -68.3000
v  -5.9999 -647.0298 -153.9561
v  -4.9999 -647.0298 -153.9561
v  -5.9999 -723.4922 -221.4654
v  -4.9999 -723.4922 -221.4654
v  -6.0000 -919.0171 -0.0098
v  -5.0000 -919.0171 -0.0098
v  -6.0001 -723.4922 221.4458
v  -5.0001 -723.4922 221.4458
v  -6.0001 -647.0291 153.9373
v  -5.0001 -647.0291 153.9373
v  -6.0000 -722.6699 68.2804
v  -5.0000 -722.6699 68.2804
v  0.0001 -347.7236 -315.0263
v  -7.4999 -349.1447 -313.6053
v  -7.5000 -349.1448 313.6047
v  -0.0000 -347.7237 315.0258
v  -12.9903 -353.0269 -309.7230
v  -12.9904 -353.0270 309.7225
v  -14.9999 -358.3302 -304.4197
v  -15.0000 -358.3303 304.4192
v  -12.9903 -363.6335 -299.1164
v  -12.9904 -363.6336 299.1159
v  -7.4999 -367.5158 -295.2341
v  -7.5000 -367.5159 295.2335
v  0.0001 -368.9368 -293.8131
v  -0.0000 -368.9369 293.8126
v  7.5001 -367.5158 -295.2341
v  7.5000 -367.5159 295.2335
v  12.9905 -363.6335 -299.1164
v  12.9904 -363.6336 299.1159
v  15.0001 -358.3302 -304.4197
v  15.0000 -358.3303 304.4192
v  12.9905 -353.0269 -309.7230
v  12.9904 -353.0270 309.7225
v  7.5001 -349.1447 -313.6053
v  7.5000 -349.1448 313.6047
v  -7.5001 -976.2182 313.6046
v  -0.0001 -977.6392 315.0256
v  -12.9904 -972.3359 309.7223
v  -15.0001 -967.0326 304.4190
v  -12.9904 -961.7294 299.1157
v  -7.5001 -957.8470 295.2334
v  -0.0001 -956.4260 293.8124
v  7.4999 -957.8470 295.2334
v  12.9903 -961.7294 299.1157
v  14.9999 -967.0326 304.4190
v  12.9903 -972.3359 309.7223
v  7.4999 -976.2182 313.6046
v  -7.4999 -976.2181 -313.6053
v  0.0001 -977.6390 -315.0264
v  -12.9903 -972.3358 -309.7231
v  -15.0000 -967.0325 -304.4198
v  -12.9903 -961.7292 -299.1165
v  -7.5000 -957.8469 -295.2342
v  0.0000 -956.4259 -293.8132
v  7.5000 -957.8469 -295.2342
v  12.9904 -961.7292 -299.1165
v  15.0000 -967.0325 -304.4198
v  12.9904 -972.3358 -309.7231
v  7.5001 -976.2181 -313.6053
v  -0.0001 -358.6001 166.7715
v  -5.6569 -358.6001 164.4283
v  -8.0001 -358.6001 158.7715
v  7.9999 -358.6001 158.7715
v  -5.6569 -358.6001 153.1146
v  -0.0001 -358.6001 150.7715
v  5.6568 -358.6001 153.1146
v  5.6568 -358.6001 164.4283
v  5.6568 977.6394 153.1147
v  7.9999 977.6394 158.7715
v  -0.0001 977.6394 150.7715
v  -5.6569 977.6394 153.1147
v  -8.0001 977.6394 158.7715
v  -5.6569 977.6394 164.4282
v  -0.0001 977.6394 166.7715
v  5.6568 977.6394 164.4282
v  -0.0000 -358.6001 -150.7910
v  -5.6569 -358.6001 -153.1342
v  -8.0000 -358.6001 -158.7910
v  8.0000 -358.6001 -158.7910
v  -5.6569 -358.6001 -164.4479
v  -0.0000 -358.6001 -166.7910
v  5.6568 -358.6001 -164.4479
v  5.6568 -358.6001 -153.1342
v  5.6568 977.6394 -164.4478
v  8.0000 977.6394 -158.7910
v  -0.0000 977.6394 -166.7910
v  -5.6569 977.6394 -164.4478
v  -8.0000 977.6394 -158.7910
v  -5.6569 977.6394 -153.1343
v  -0.0000 977.6394 -150.7910
v  5.6568 977.6394 -153.1343
v  4.8126 -962.6812 -300.0098
v  4.8125 -362.6812 -300.0098
v  4.8124 -362.6812 299.9902
v  4.8125 -962.6812 299.9902
v  -5.1874 -962.6812 -300.0098
v  -5.1875 -962.6812 299.9902
v  -5.1876 -362.6812 299.9902
v  -5.1875 -362.6812 -300.0098
# 106 vertices

vn -0.0000 1.0000 -0.0000
vn 0.0000 -0.0000 -1.0000
vn -0.0000 0.7497 0.6618
vn 0.0000 0.6619 -0.7496
vn 0.0000 -0.7496 -0.6619
vn 0.0000 -0.7496 0.6619
vn -0.0000 0.6618 0.7496
vn -0.0000 0.7496 -0.6619
vn -0.0000 -0.0000 1.0000
vn 1.0000 0.0000 0.0000
vn 1.0000 -0.0000 0.0000
vn -1.0000 -0.0000 -0.0000
vn -1.0000 0.0000 -0.0000
vn -0.0000 0.7071 -0.7071
vn -0.4548 0.6298 -0.6298
vn -0.4548 0.6298 0.6298
vn -0.0000 0.7071 0.7071
vn -0.8130 0.4117 -0.4117
vn -0.8130 0.4117 0.4117
vn -0.9919 0.0900 -0.0900
vn -0.9919 0.0900 0.0900
vn -0.9196 -0.2779 0.2779
vn -0.9196 -0.2779 -0.2779
vn -0.5597 -0.5860 0.5860
vn -0.5597 -0.5860 -0.5860
vn -0.0000 -0.7071 0.7071
vn 0.0000 -0.7071 -0.7071
vn 0.5597 -0.5860 0.5860
vn 0.5597 -0.5860 -0.5860
vn 0.9196 -0.2779 0.2779
vn 0.9196 -0.2779 -0.2779
vn 0.9919 0.0900 -0.0900
vn 0.9919 0.0900 0.0900
vn 0.8130 0.4117 -0.4117
vn 0.8130 0.4117 0.4117
vn 0.4548 0.6298 -0.6298
vn 0.4548 0.6298 0.6298
vn -0.4548 -0.6298 0.6298
vn -0.8130 -0.4117 0.4117
vn -0.9919 -0.0900 0.0900
vn -0.9196 0.2779 -0.2779
vn -0.5597 0.5860 -0.5860
vn 0.5597 0.5860 -0.5860
vn 0.9196 0.2779 -0.2779
vn 0.9919 -0.0900 0.0900
vn 0.8130 -0.4117 0.4117
vn 0.4548 -0.6298 0.6298
vn -0.4548 -0.6298 -0.6298
vn -0.8130 -0.4117 -0.4117
vn -0.9919 -0.0900 -0.0900
vn -0.9195 0.2779 0.2779
vn -0.5597 0.5860 0.5860
vn 0.5597 0.5860 0.5860
vn 0.9195 0.2779 0.2779
vn 0.9919 -0.0900 -0.0900
vn 0.8130 -0.4117 -0.4117
vn 0.4548 -0.6298 -0.6298
vn 0.0000 -1.0000 0.0000
vn 1.0000 0.0000 -0.0000
vn 0.7071 0.0000 -0.7071
vn 0.0000 0.0000 -1.0000
vn -0.7071 0.0000 -0.7071
vn -1.0000 0.0000 0.0000
vn -0.7071 0.0000 0.7071
vn -0.0000 0.0000 1.0000
vn 0.7071 0.0000 0.7071
# 66 vertex normals

vt -68.2902 372.2227 1.0000
vt 68.2901 372.2227 1.0000
vt 68.2901 372.2227 0.0000
vt -68.2902 372.2227 0.0000
vt -68.2902 66.0156 1.0000
vt -68.2902 66.0156 -0.0000
vt -153.9463 141.6367 0.9999
vt -153.9463 141.6367 -0.0001
vt -221.4556 65.1743 0.9999
vt -221.4556 65.1743 -0.0001
vt 0.0000 -130.3506 1.0000
vt 0.0000 -130.3506 -0.0000
vt 221.4555 65.1743 1.0001
vt 221.4555 65.1743 0.0001
vt 153.9470 141.6374 1.0001
vt 153.9470 141.6374 0.0001
vt 68.2901 65.9966 1.0000
vt 68.2901 65.9966 0.0000
vt 0.0000 0.0000 0.0000
vt 0.0833 0.0000 0.0000
vt 0.0833 0.2500 0.0000
vt 0.0000 0.2500 0.0000
vt 0.1667 0.0000 0.0000
vt 0.1667 0.2500 0.0000
vt 0.2500 0.0000 0.0000
vt 0.2500 0.2500 0.0000
vt 0.3333 0.0000 0.0000
vt 0.3333 0.2500 0.0000
vt 0.4167 0.0000 0.0000
vt 0.4167 0.2500 0.0000
vt 0.5000 0.0000 0.0000
vt 0.5000 0.2500 0.0000
vt 0.5833 0.0000 0.0000
vt 0.5833 0.2500 0.0000
vt 0.6667 0.0000 0.0000
vt 0.6667 0.2500 0.0000
vt 0.7500 0.0000 0.0000
vt 0.7500 0.2500 0.0000
vt 0.8333 0.0000 0.0000
vt 0.8333 0.2500 0.0000
vt 0.9167 0.0000 0.0000
vt 0.9167 0.2500 0.0000
vt 1.0000 0.0000 0.0000
vt 1.0000 0.2500 0.0000
vt 0.0833 0.5000 0.0000
vt 0.0000 0.5000 0.0000
vt 0.1667 0.5000 0.0000
vt 0.2500 0.5000 0.0000
vt 0.3333 0.5000 0.0000
vt 0.4167 0.5000 0.0000
vt 0.5000 0.5000 0.0000
vt 0.5833 0.5000 0.0000
vt 0.6667 0.5000 0.0000
vt 0.7500 0.5000 0.0000
vt 0.8333 0.5000 0.0000
vt 0.9167 0.5000 0.0000
vt 1.0000 0.5000 0.0000
vt 0.0833 0.7500 0.0000
vt 0.0000 0.7500 0.0000
vt 0.1667 0.7500 0.0000
vt 0.2500 0.7500 0.0000
vt 0.3333 0.7500 0.0000
vt 0.4167 0.7500 0.0000
vt 0.5000 0.7500 0.0000
vt 0.5833 0.7500 0.0000
vt 0.6667 0.7500 0.0000
vt 0.7500 0.7500 0.0000
vt 0.8333 0.7500 0.0000
vt 0.9167 0.7500 0.0000
vt 1.0000 0.7500 0.0000
vt 0.0833 1.0000 0.0000
vt 0.0000 1.0000 0.0000
vt 0.1667 1.0000 0.0000
vt 0.2500 1.0000 0.0000
vt 0.3333 1.0000 0.0000
vt 0.4167 1.0000 0.0000
vt 0.5000 1.0000 0.0000
vt 0.5833 1.0000 0.0000
vt 0.6667 1.0000 0.0000
vt 0.7500 1.0000 0.0000
vt 0.8333 1.0000 0.0000
vt 0.9167 1.0000 0.0000
vt 1.0000 1.0000 0.0000
vt 0.5000 0.0000 1.0000
vt 0.3750 0.0000 1.0000
vt 0.2500 0.0000 1.0000
vt 0.1161 0.0000 0.4142
vt 0.1250 0.0000 1.0000
vt 0.0000 0.0000 1.0000
vt -0.1250 0.0000 1.0000
vt 0.6250 0.0000 1.0000
vt 0.7500 0.0000 1.0000
vt 0.8750 0.0000 1.0000
vt 0.8750 1.0000 1.0000
vt 0.7500 1.0000 1.0000
vt 0.0000 1.0000 1.0000
vt -0.1250 1.0000 1.0000
vt 0.1250 1.0000 1.0000
vt 0.2500 1.0000 1.0000
vt 0.3750 1.0000 1.0000
vt 0.5000 1.0000 1.0000
vt 0.6250 1.0000 1.0000
vt 0.7803 1.0000 0.4142
vt 0.2197 1.0000 -0.4142
vt 0.5214 1.0000 -0.4142
vt 0.2500 1.0000 -1.0000
vt 0.1250 1.0000 -1.0000
# 107 texture coords

g chedao01
usemtl Mat3d66_636233_5_521
s 1
f 1/1/1 2/2/1 3/3/1 4/4/1 
s 4
f 5/5/2 1/1/2 4/4/2 6/6/2 
s 2
f 7/7/3 5/5/3 6/6/3 8/8/3 
s 4
f 9/9/4 7/7/4 8/8/4 10/10/4 
s 2
f 11/11/5 9/9/5 10/10/5 12/12/5 
s 4
f 13/13/6 11/11/6 12/12/6 14/14/6 
s 2
f 15/15/7 13/13/7 14/14/7 16/16/7 
s 4
f 17/17/8 15/15/8 16/16/8 18/18/8 
s 2
f 2/2/9 17/17/9 18/18/9 3/3/9 
s 16
f 18/18/10 16/16/10 14/14/10 12/12/10 
f 18/18/10 12/12/10 10/10/10 6/6/10 
f 10/10/10 8/8/11 6/6/10 
f 3/3/10 18/18/10 6/6/10 4/4/10 
f 2/2/12 1/1/12 5/5/12 17/17/12 
f 5/5/12 7/7/13 9/9/12 17/17/12 
f 13/13/12 15/15/12 17/17/12 11/11/12 
f 9/9/12 11/11/12 17/17/12 
usemtl Mat3d66_636233_13_398
s 1
f 19/19/14 20/20/15 21/21/16 22/22/17 
f 20/20/15 23/23/18 24/24/19 21/21/16 
f 23/23/18 25/25/20 26/26/21 24/24/19 
f 25/25/20 27/27/22 28/28/23 26/26/21 
f 27/27/22 29/29/24 30/30/25 28/28/23 
f 29/29/24 31/31/26 32/32/27 30/30/25 
f 31/31/26 33/33/28 34/34/29 32/32/27 
f 33/33/28 35/35/30 36/36/31 34/34/29 
f 35/35/30 37/37/32 38/38/33 36/36/31 
f 37/37/32 39/39/34 40/40/35 38/38/33 
f 39/39/34 41/41/36 42/42/37 40/40/35 
f 41/41/36 19/43/14 22/44/17 42/42/37 
f 22/22/17 21/21/16 43/45/38 44/46/26 
f 21/21/16 24/24/19 45/47/39 43/45/38 
f 24/24/19 26/26/21 46/48/40 45/47/39 
f 26/26/21 28/28/23 47/49/41 46/48/40 
f 28/28/23 30/30/25 48/50/42 47/49/41 
f 30/30/25 32/32/27 49/51/14 48/50/42 
f 32/32/27 34/34/29 50/52/43 49/51/14 
f 34/34/29 36/36/31 51/53/44 50/52/43 
f 36/36/31 38/38/33 52/54/45 51/53/44 
f 38/38/33 40/40/35 53/55/46 52/54/45 
f 40/40/35 42/42/37 54/56/47 53/55/46 
f 42/42/37 22/44/17 44/57/26 54/56/47 
f 44/46/26 43/45/38 55/58/48 56/59/27 
f 43/45/38 45/47/39 57/60/49 55/58/48 
f 45/47/39 46/48/40 58/61/50 57/60/49 
f 46/48/40 47/49/41 59/62/51 58/61/50 
f 47/49/41 48/50/42 60/63/52 59/62/51 
f 48/50/42 49/51/14 61/64/17 60/63/52 
f 49/51/14 50/52/43 62/65/53 61/64/17 
f 50/52/43 51/53/44 63/66/54 62/65/53 
f 51/53/44 52/54/45 64/67/55 63/66/54 
f 52/54/45 53/55/46 65/68/56 64/67/55 
f 53/55/46 54/56/47 66/69/57 65/68/56 
f 54/56/47 44/57/26 56/70/27 66/69/57 
f 56/59/27 55/58/48 20/71/15 19/72/14 
f 55/58/48 57/60/49 23/73/18 20/71/15 
f 57/60/49 58/61/50 25/74/20 23/73/18 
f 58/61/50 59/62/51 27/75/22 25/74/20 
f 59/62/51 60/63/52 29/76/24 27/75/22 
f 60/63/52 61/64/17 31/77/26 29/76/24 
f 61/64/17 62/65/53 33/78/28 31/77/26 
f 62/65/53 63/66/54 35/79/30 33/78/28 
f 63/66/54 64/67/55 37/80/32 35/79/30 
f 64/67/55 65/68/56 39/81/34 37/80/32 
f 65/68/56 66/69/57 41/82/36 39/81/34 
f 66/69/57 56/70/27 19/83/14 41/82/36 
f 67/84/58 68/85/58 69/86/58 70/87/58 
f 69/86/58 71/88/58 72/89/58 70/87/58 
f 72/89/58 73/90/58 70/87/58 
f 74/91/58 67/84/58 70/87/58 
s 8
f 70/92/59 73/93/60 75/94/60 76/95/59 
f 73/90/60 72/89/61 77/96/61 75/97/60 
f 72/89/61 71/88/62 78/98/62 77/96/61 
f 71/88/62 69/86/63 79/99/63 78/98/62 
f 69/86/63 68/85/64 80/100/64 79/99/63 
f 68/85/64 67/84/65 81/101/65 80/100/64 
f 67/84/65 74/91/66 82/102/66 81/101/65 
f 74/91/66 70/92/59 76/95/59 82/102/66 
s 1
f 76/95/1 75/94/1 77/103/1 81/104/1 
f 77/103/1 78/105/1 79/106/1 81/104/1 
f 79/106/1 80/107/1 81/104/1 
f 82/102/1 76/95/1 81/104/1 
f 83/84/58 84/85/58 85/86/58 86/87/58 
f 85/86/58 87/88/58 88/89/58 86/87/58 
f 88/89/58 89/90/58 86/87/58 
f 90/91/58 83/84/58 86/87/58 
s 8
f 86/92/59 89/93/60 91/94/60 92/95/59 
f 89/90/60 88/89/61 93/96/61 91/97/60 
f 88/89/61 87/88/62 94/98/62 93/96/61 
f 87/88/62 85/86/63 95/99/63 94/98/62 
f 85/86/63 84/85/64 96/100/64 95/99/63 
f 84/85/64 83/84/65 97/101/65 96/100/64 
f 83/84/65 90/91/66 98/102/66 97/101/65 
f 90/91/66 86/92/59 92/95/59 98/102/66 
s 1
f 92/95/1 91/94/1 93/103/1 97/104/1 
f 93/103/1 94/105/1 95/106/1 97/104/1 
f 95/106/1 96/107/1 97/104/1 
f 98/102/1 92/95/1 97/104/1 
usemtl Mat3d66_636233_49_567
s 2
f 99/43/10 100/83/10 101/72/10 102/19/10 
s 4
f 103/19/12 104/43/12 105/83/12 106/72/12 
s 8
f 99/19/58 102/43/58 104/83/58 103/72/58 
s 16
f 102/19/65 101/43/65 105/83/65 104/72/65 
s 32
f 101/19/1 100/43/1 106/83/1 105/72/1 
s 64
f 100/19/61 99/43/61 103/83/61 106/72/61 
# 93 polygons - 10 triangles

