# 3ds Max Wavefront OBJ Exporter v0.97b - (c)2007 guruware
# File Created: 28.12.2019 13:33:13

mtllib dianhua.mtl

#
# object dianhua
#

v  0.0000 333.8885 -212.2070
v  0.0000 -333.8884 -212.2071
v  -0.0000 -333.8885 212.2070
v  -0.0000 333.8884 212.2071
v  -40.0000 333.8885 -212.2070
v  -40.0000 333.8884 212.2071
v  -40.0000 -333.8885 212.2070
v  -40.0000 -333.8884 -212.2071
v  -45.0000 353.8885 232.2071
v  -45.0000 353.8885 -232.2070
v  5.0000 353.8885 -232.2070
v  5.0000 353.8885 232.2071
v  -45.0000 -353.8885 232.2070
v  5.0000 -353.8885 232.2070
v  -45.0000 -353.8885 -232.2071
v  5.0000 -353.8885 -232.2071
v  -45.0000 -333.8888 212.2070
v  -45.0000 -333.8885 -212.2071
v  5.0000 -333.8885 -212.2071
v  5.0000 -333.8888 212.2070
v  -45.0000 333.8885 212.2071
v  5.0000 333.8885 212.2071
v  -45.0000 333.8888 -212.2070
v  5.0000 333.8888 -212.2070
v  -20.0001 229.5131 392.9925
v  -25.6569 231.8563 392.9925
v  -28.0001 237.5131 392.9925
v  -12.0001 237.5131 392.9925
v  -25.6569 243.1700 392.9925
v  -20.0001 245.5131 392.9925
v  -14.3432 243.1700 392.9925
v  -14.3432 231.8563 392.9925
v  -14.3431 243.1700 232.2224
v  -11.9999 237.5131 232.2224
v  -19.9999 245.5131 232.2224
v  -25.6568 243.1700 232.2224
v  -27.9999 237.5131 232.2224
v  -25.6568 231.8562 232.2224
v  -19.9999 229.5131 232.2224
v  -14.3431 231.8562 232.2224
v  -20.0001 -245.5133 392.9925
v  -25.6569 -243.1701 392.9925
v  -28.0001 -237.5133 392.9925
v  -12.0001 -237.5133 392.9925
v  -25.6569 -231.8564 392.9925
v  -20.0001 -229.5133 392.9925
v  -14.3432 -231.8564 392.9925
v  -14.3432 -243.1701 392.9925
v  -14.3431 -231.8564 232.2224
v  -11.9999 -237.5133 232.2224
v  -19.9999 -229.5133 232.2224
v  -25.6568 -231.8564 232.2224
v  -27.9999 -237.5133 232.2224
v  -25.6568 -243.1701 232.2224
v  -19.9999 -245.5133 232.2224
v  -14.3431 -243.1701 232.2224
# 56 vertices

vn 1.0000 0.0000 0.0000
vn -1.0000 -0.0000 -0.0000
vn 0.0000 -1.0000 -0.0000
vn 0.0000 0.0000 -1.0000
vn -0.0000 1.0000 0.0000
vn -0.0000 -0.0000 1.0000
vn 0.7071 0.7071 0.0000
vn 1.0000 -0.0000 0.0000
vn -0.0000 1.0000 -0.0000
vn 0.0000 1.0000 -0.0000
vn -0.7071 0.7071 -0.0000
vn -1.0000 0.0000 -0.0000
vn -0.7071 -0.7071 -0.0000
vn -0.0000 -1.0000 0.0000
vn 0.0000 -1.0000 0.0000
vn 0.7071 -0.7071 0.0000
vn 0.0000 -0.0000 1.0000
vn 0.0000 1.0000 0.0000
# 18 vertex normals

vt 0.0000 1.0000 0.0000
vt 0.0000 0.0000 0.0000
vt 1.0000 0.0000 0.0000
vt 1.0000 1.0000 0.0000
vt -232.2070 353.8885 50.0000
vt 232.2070 353.8885 50.0000
vt 232.2070 353.8885 0.0000
vt -232.2070 353.8885 0.0000
vt -232.2070 -353.8885 50.0000
vt -232.2070 -353.8885 0.0000
vt 232.2070 -353.8885 50.0000
vt 232.2070 -353.8885 0.0000
vt -212.2071 -333.8888 50.0000
vt 212.2070 -333.8885 50.0000
vt 212.2070 -333.8885 0.0000
vt -212.2071 -333.8888 0.0000
vt -212.2070 333.8885 50.0000
vt -212.2070 333.8885 0.0000
vt 212.2071 333.8888 50.0000
vt 212.2071 333.8888 0.0000
vt 0.5000 0.0000 1.0000
vt 0.3750 0.0000 1.0000
vt 0.2500 0.0000 1.0000
vt 0.1161 0.0000 0.4142
vt 0.1250 0.0000 1.0000
vt 0.0000 0.0000 1.0000
vt -0.1250 0.0000 1.0000
vt 0.6250 0.0000 1.0000
vt 0.7500 0.0000 1.0000
vt 0.8750 0.0000 1.0000
vt 0.8750 1.0000 1.0000
vt 0.7500 1.0000 1.0000
vt 0.0000 1.0000 1.0000
vt -0.1250 1.0000 1.0000
vt 0.1250 1.0000 1.0000
vt 0.2500 1.0000 1.0000
vt 0.3750 1.0000 1.0000
vt 0.5000 1.0000 1.0000
vt 0.6250 1.0000 1.0000
vt 0.7803 1.0000 0.4142
vt 0.2197 1.0000 -0.4142
vt 0.5214 1.0000 -0.4142
vt 0.2500 1.0000 -1.0000
vt 0.1250 1.0000 -1.0000
# 44 texture coords

g dianhua
usemtl Material__1555566662
s 2
f 4/4/1 3/3/1 2/2/1 1/1/1 
s 4
f 8/3/2 7/2/2 6/1/2 5/4/2 
s 8
f 2/3/3 3/2/3 7/1/3 8/4/3 
s 16
f 1/3/4 2/2/4 8/1/4 5/4/4 
s 32
f 4/3/5 1/2/5 5/1/5 6/4/5 
s 64
f 3/3/6 4/2/6 6/1/6 7/4/6 
usemtl Mat3d66_636233_13_398
s 1
f 12/8/5 11/7/5 10/6/5 9/5/5 
s 4
f 14/10/6 12/8/6 9/5/6 13/9/6 
s 2
f 16/12/3 14/10/3 13/9/3 15/11/3 
s 4
f 11/7/4 16/12/4 15/11/4 10/6/4 
s 1
f 20/16/5 19/15/5 18/14/5 17/13/5 
s 4
f 22/18/4 20/16/4 17/13/4 21/17/4 
s 2
f 24/20/3 22/18/3 21/17/3 23/19/3 
s 4
f 19/15/6 24/20/6 23/19/6 18/14/6 
s 16
f 14/10/1 16/12/1 19/15/1 20/16/1 
f 12/8/1 14/10/1 20/16/1 22/18/1 
f 11/7/1 12/8/1 22/18/1 24/20/1 
f 24/20/1 19/15/1 16/12/1 11/7/1 
f 15/11/2 13/9/2 17/13/2 18/14/2 
f 23/19/2 10/6/2 15/11/2 18/14/2 
f 21/17/2 9/5/2 10/6/2 23/19/2 
f 9/5/2 21/17/2 17/13/2 13/9/2 
s 1
f 28/24/6 27/23/6 26/22/6 25/21/6 
f 28/24/6 30/26/6 29/25/6 27/23/6 
f 28/24/6 31/27/6 30/26/6 
f 28/24/6 25/21/6 32/28/6 
s 8
f 34/32/8 33/31/7 31/30/7 28/29/1 
f 33/34/7 35/33/10 30/26/9 31/27/7 
f 35/33/10 36/35/11 29/25/11 30/26/9 
f 36/35/11 37/36/2 27/23/12 29/25/11 
f 37/36/2 38/37/13 26/22/13 27/23/12 
f 38/37/13 39/38/15 25/21/14 26/22/13 
f 39/38/15 40/39/16 32/28/16 25/21/14 
f 40/39/16 34/32/8 28/29/1 32/28/16 
s 1
f 39/41/4 35/40/4 33/31/4 34/32/4 
f 39/41/4 37/43/4 36/42/4 35/40/4 
f 39/41/4 38/44/4 37/43/4 
f 39/41/4 34/32/4 40/39/4 
f 44/24/17 43/23/6 42/22/6 41/21/6 
f 44/24/17 46/26/6 45/25/6 43/23/6 
f 44/24/17 47/27/6 46/26/6 
f 44/24/17 41/21/6 48/28/17 
s 8
f 50/32/8 49/31/7 47/30/7 44/29/1 
f 49/34/7 51/33/18 46/26/5 47/27/7 
f 51/33/18 52/35/11 45/25/11 46/26/5 
f 52/35/11 53/36/2 43/23/12 45/25/11 
f 53/36/2 54/37/13 42/22/13 43/23/12 
f 54/37/13 55/38/15 41/21/14 42/22/13 
f 55/38/15 56/39/16 48/28/16 41/21/14 
f 56/39/16 50/32/8 44/29/1 48/28/16 
s 1
f 55/41/4 51/40/4 49/31/4 50/32/4 
f 55/41/4 53/43/4 52/42/4 51/40/4 
f 55/41/4 54/44/4 53/43/4 
f 55/41/4 50/32/4 56/39/4 
# 46 polygons - 8 triangles

