# 3ds Max Wavefront OBJ Exporter v0.97b - (c)2007 guruware
# File Created: 03.01.2020 16:24:52

mtllib malu-wai.mtl

#
# object malu
#

v  -20472.0313 135.0000 -5501.6719
v  20521.4688 135.0000 -5501.6719
v  20521.4688 0.0000 -5501.6719
v  -20472.0313 0.0000 -5501.6719
v  -20472.0313 135.0000 5510.2031
v  -20472.0313 0.0000 5510.2031
v  20521.4688 135.0000 5510.2031
v  20521.4688 0.0000 5510.2031
v  20513.8438 134.8750 -51.7344
v  20513.8438 134.8750 68.2656
v  -20521.4688 134.8750 68.2656
v  -20521.4688 134.8750 -51.7344
v  20513.8438 135.8750 -51.7344
v  -20521.4688 135.8750 -51.7344
v  -20521.4688 135.8750 68.2656
v  20513.8438 135.8750 68.2656
v  20513.8438 134.8752 -3833.2715
v  20513.8438 134.8752 -3713.2715
v  -20521.4688 134.8752 -3713.2715
v  -20521.4688 134.8752 -3833.2715
v  20513.8438 135.8752 -3833.2715
v  -20521.4688 135.8752 -3833.2715
v  -20521.4688 135.8752 -3713.2715
v  20513.8438 135.8752 -3713.2715
v  20513.8438 134.8748 3727.8320
v  20513.8438 134.8748 3847.8320
v  -20521.4688 134.8748 3847.8320
v  -20521.4688 134.8748 3727.8320
v  20513.8438 135.8748 3727.8320
v  -20521.4688 135.8748 3727.8320
v  -20521.4688 135.8748 3847.8320
v  20513.8438 135.8748 3847.8320
v  -20485.9375 325.7500 4500.6563
v  20513.8750 325.7500 4500.6563
v  20513.8750 106.2500 4500.6563
v  -20485.9375 106.2500 4500.6563
v  -20485.9375 325.7500 5514.6875
v  -20485.9375 106.2500 5514.6875
v  20513.8750 325.7500 5514.6875
v  20513.8750 106.2500 5514.6875
v  -20485.9375 325.7500 -5514.6875
v  20513.8750 325.7500 -5514.6875
v  20513.8750 106.2500 -5514.6875
v  -20485.9375 106.2500 -5514.6875
v  -20485.9375 325.7500 -4500.6563
v  -20485.9375 106.2500 -4500.6563
v  20513.8750 325.7500 -4500.6563
v  20513.8750 106.2500 -4500.6563
# 48 vertices

vn 0.0000 0.0000 -1.0000
vn -1.0000 0.0000 -0.0000
vn 0.0000 0.0000 1.0000
vn 1.0000 0.0000 -0.0000
vn 0.0000 1.0000 -0.0000
vn 0.0000 -1.0000 -0.0000
# 6 vertex normals

vt -2.1256 1.7592 1.1344
vt 0.6073 1.7592 1.1344
vt 0.6073 1.7592 0.9995
vt -2.1256 1.7592 0.9995
vt -2.1256 -0.7592 1.1344
vt -2.1256 -0.7592 0.9995
vt 0.6073 -0.7592 1.1344
vt 0.6073 -0.7592 0.9995
vt 0.0000 1.0000 0.0000
vt 0.0000 0.0000 0.0000
vt 1.0000 0.0000 0.0000
vt 1.0000 1.0000 0.0000
vt 10.7500 0.5549 -1.7503
vt -9.7500 0.5549 -1.7503
vt -9.7500 0.4451 -1.7503
vt 10.7500 0.4451 -1.7503
vt 3.2573 0.5549 -9.7500
vt 2.7503 0.5549 -9.7500
vt 2.7503 0.4451 -9.7500
vt 3.2573 0.4451 -9.7500
vt 10.7500 0.5549 -2.2573
vt -9.7500 0.5549 -2.2573
vt -9.7500 0.4451 -2.2573
vt 10.7500 0.4451 -2.2573
vt -1.7503 0.5549 10.7500
vt -2.2573 0.5549 10.7500
vt -2.2573 0.4451 10.7500
vt -1.7503 0.4451 10.7500
vt 10.7500 0.5549 3.2573
vt -9.7500 0.5549 3.2573
vt -9.7500 0.4451 3.2573
vt 10.7500 0.4451 3.2573
vt -1.7503 0.5549 -9.7500
vt -2.2573 0.5549 -9.7500
vt -2.2573 0.4451 -9.7500
vt -1.7503 0.4451 -9.7500
vt 10.7500 0.5549 2.7503
vt -9.7500 0.5549 2.7503
vt -9.7500 0.4451 2.7503
vt 10.7500 0.4451 2.7503
vt 3.2573 0.5549 10.7500
vt 2.7503 0.5549 10.7500
vt 2.7503 0.4451 10.7500
vt 3.2573 0.4451 10.7500
vt 10.7500 -1.7503 0.5549
vt -9.7500 -1.7503 0.5549
vt -9.7500 -2.2573 0.5549
vt 10.7500 -2.2573 0.5549
vt 10.7500 3.2573 0.5549
vt -9.7500 3.2573 0.5549
vt -9.7500 2.7503 0.5549
vt 10.7500 2.7503 0.5549
# 52 texture coords

g malu
usemtl Mat3dxcvv
s 1
f 1/1/1 2/2/1 3/3/1 4/4/1 
s 4
f 5/5/2 1/1/2 4/4/2 6/6/2 
s 2
f 7/7/3 5/5/3 6/6/3 8/8/3 
s 4
f 2/2/4 7/7/4 8/8/4 3/3/4 
s 16
f 2/2/5 1/1/5 5/5/5 7/7/5 
usemtl Mat3d66_636233_2_711
s 2
f 9/9/6 10/10/6 11/11/6 12/12/6 
s 4
f 13/12/5 14/9/5 15/10/5 16/11/5 
s 8
f 16/12/3 15/9/3 11/10/3 10/11/3 
s 16
f 13/12/4 16/9/4 10/10/4 9/11/4 
s 32
f 14/12/1 13/9/1 9/10/1 12/11/1 
s 64
f 15/12/2 14/9/2 12/10/2 11/11/2 
s 2
f 17/9/6 18/10/6 19/11/6 20/12/6 
s 4
f 21/12/5 22/9/5 23/10/5 24/11/5 
s 8
f 24/12/3 23/9/3 19/10/3 18/11/3 
s 16
f 21/12/4 24/9/4 18/10/4 17/11/4 
s 32
f 22/12/1 21/9/1 17/10/1 20/11/1 
s 64
f 23/12/2 22/9/2 20/10/2 19/11/2 
s 2
f 25/9/6 26/10/6 27/11/6 28/12/6 
s 4
f 29/12/5 30/9/5 31/10/5 32/11/5 
s 8
f 32/12/3 31/9/3 27/10/3 26/11/3 
s 16
f 29/12/4 32/9/4 26/10/4 25/11/4 
s 32
f 30/12/1 29/9/1 25/10/1 28/11/1 
s 64
f 31/12/2 30/9/2 28/10/2 27/11/2 
usemtl Mat3d66_842985_8_2937
s 1
f 33/13/1 34/14/1 35/15/1 36/16/1 
s 4
f 37/17/2 33/18/2 36/19/2 38/20/2 
s 2
f 39/21/3 37/22/3 38/23/3 40/24/3 
s 4
f 34/25/4 39/26/4 40/27/4 35/28/4 
s 1
f 41/29/1 42/30/1 43/31/1 44/32/1 
s 4
f 45/33/2 41/34/2 44/35/2 46/36/2 
s 2
f 47/37/3 45/38/3 46/39/3 48/40/3 
s 4
f 42/41/4 47/42/4 48/43/4 43/44/4 
s 16
f 34/45/5 33/46/5 37/47/5 39/48/5 
f 42/49/5 41/50/5 45/51/5 47/52/5 
# 33 polygons

