# 3ds Max Wavefront OBJ Exporter v0.97b - (c)2007 guruware
# File Created: 28.12.2019 13:37:43

mtllib meiyouxiansu.mtl

#
# object tongxing01
#

v  4.9999 -641.8506 376.0000
v  4.9999 -497.9616 347.3787
v  -5.0001 -497.9616 347.3787
v  -5.0001 -641.8506 376.0000
v  4.9999 -375.9785 265.8721
v  -5.0001 -375.9785 265.8721
v  4.9999 -294.4719 143.8890
v  -5.0001 -294.4719 143.8890
v  4.9999 -265.8506 -0.0000
v  -5.0001 -265.8506 -0.0000
v  5.0000 -294.4719 -143.8890
v  -5.0000 -294.4719 -143.8890
v  5.0000 -375.9785 -265.8721
v  -5.0000 -375.9785 -265.8721
v  5.0000 -497.9616 -347.3787
v  -5.0000 -497.9616 -347.3787
v  5.0001 -641.8505 -376.0000
v  -4.9999 -641.8505 -376.0000
v  5.0001 -785.7395 -347.3787
v  -4.9999 -785.7395 -347.3787
v  5.0001 -907.7227 -265.8722
v  -4.9999 -907.7227 -265.8722
v  5.0001 -989.2292 -143.8890
v  -4.9999 -989.2292 -143.8890
v  5.0001 -1017.8506 0.0000
v  -4.9999 -1017.8506 0.0000
v  5.0000 -989.2292 143.8890
v  -5.0000 -989.2292 143.8890
v  5.0000 -907.7227 265.8722
v  -5.0000 -907.7227 265.8722
v  5.0000 -785.7394 347.3788
v  -5.0000 -785.7394 347.3788
v  9.9999 -243.1692 -0.0000
v  -10.0001 -243.1692 -0.0000
v  -10.0001 -267.2126 136.3571
v  9.9999 -267.2126 136.3571
v  -10.0001 -283.8906 -0.0000
v  -10.0001 -305.4782 122.4295
v  9.9999 -283.8906 -0.0000
v  9.9999 -305.4782 122.4295
v  -10.0001 -336.4429 256.2675
v  9.9999 -336.4429 256.2675
v  -10.0001 -367.6373 230.0923
v  9.9999 -367.6373 230.0923
v  -10.0001 -442.5099 345.2682
v  9.9999 -442.5099 345.2682
v  -10.0001 -462.8706 310.0025
v  9.9999 -462.8706 310.0025
v  -10.0001 -572.6204 392.6245
v  9.9999 -572.6204 392.6245
v  -10.0001 -579.6915 352.5218
v  9.9999 -579.6915 352.5218
v  -10.0001 -711.0809 392.6245
v  9.9999 -711.0809 392.6245
v  -10.0000 -704.0098 352.5218
v  10.0000 -704.0098 352.5218
v  -10.0000 -841.1913 345.2682
v  10.0000 -841.1913 345.2682
v  -10.0000 -820.8306 310.0024
v  10.0000 -820.8306 310.0024
v  -10.0000 -947.2583 256.2674
v  10.0000 -947.2583 256.2674
v  -10.0000 -916.0638 230.0922
v  10.0000 -916.0638 230.0922
v  -10.0000 -1016.4886 136.3570
v  10.0000 -1016.4886 136.3570
v  -10.0000 -978.2230 122.4294
v  10.0000 -978.2230 122.4294
v  -9.9999 -1040.5320 -0.0001
v  10.0001 -1040.5320 -0.0001
v  -9.9999 -999.8105 -0.0001
v  10.0001 -999.8105 -0.0001
v  -9.9999 -1016.4885 -136.3572
v  10.0001 -1016.4885 -136.3572
v  -9.9999 -978.2229 -122.4296
v  10.0001 -978.2229 -122.4296
v  -9.9999 -947.2582 -256.2675
v  10.0001 -947.2582 -256.2675
v  -9.9999 -916.0638 -230.0923
v  10.0001 -916.0638 -230.0923
v  -9.9999 -841.1912 -345.2683
v  10.0001 -841.1912 -345.2683
v  -9.9999 -820.8305 -310.0025
v  10.0001 -820.8305 -310.0025
v  -9.9999 -711.0808 -392.6245
v  10.0001 -711.0808 -392.6245
v  -9.9999 -704.0096 -352.5218
v  10.0001 -704.0096 -352.5218
v  -9.9999 -572.6202 -392.6245
v  10.0001 -572.6202 -392.6245
v  -10.0000 -579.6915 -352.5218
v  10.0000 -579.6915 -352.5218
v  -10.0000 -442.5099 -345.2682
v  10.0000 -442.5099 -345.2682
v  -10.0000 -462.8706 -310.0025
v  10.0000 -462.8706 -310.0025
v  -10.0000 -336.4429 -256.2674
v  10.0000 -336.4429 -256.2674
v  -10.0000 -367.6373 -230.0922
v  10.0000 -367.6373 -230.0922
v  -10.0000 -267.2126 -136.3570
v  10.0000 -267.2126 -136.3570
v  -10.0000 -305.4782 -122.4295
v  10.0000 -305.4782 -122.4295
v  1.0000 -275.3662 8.0000
v  -4.6569 -275.3662 5.6569
v  -7.0001 -275.3662 0.0000
v  9.0000 -275.3662 0.0000
v  -4.6569 -275.3662 -5.6569
v  1.0000 -275.3662 -8.0000
v  6.6568 -275.3662 -5.6569
v  6.6568 -275.3662 5.6569
v  6.6568 1040.5320 -5.6569
v  9.0000 1040.5320 -0.0001
v  0.9999 1040.5320 -8.0001
v  -4.6569 1040.5320 -5.6569
v  -7.0000 1040.5320 -0.0001
v  -4.6569 1040.5320 5.6568
v  1.0000 1040.5320 7.9999
v  6.6568 1040.5320 5.6568
# 120 vertices

vn -0.0000 0.0000 1.0000
vn -0.0000 0.3827 0.9239
vn -0.0000 0.7071 0.7071
vn -0.0000 0.9239 0.3827
vn -0.0000 1.0000 0.0000
vn -0.0000 0.9239 -0.3827
vn -0.0000 0.7071 -0.7071
vn 0.0000 0.7071 -0.7071
vn 0.0000 0.3827 -0.9239
vn 0.0000 0.0000 -1.0000
vn 0.0000 -0.3827 -0.9239
vn 0.0000 -0.7071 -0.7071
vn 0.0000 -0.9239 -0.3827
vn 0.0000 -1.0000 0.0000
vn 0.0000 -0.9239 0.3827
vn -0.0000 -0.7071 0.7071
vn -0.0000 -0.3827 0.9239
vn 1.0000 0.0000 0.0000
vn -1.0000 -0.0000 -0.0000
vn -0.0000 0.9397 0.3420
vn 0.0000 -0.9397 -0.3420
vn -0.0000 0.7660 0.6428
vn 0.0000 -0.7660 -0.6428
vn -0.0000 0.5000 0.8660
vn 0.0000 -0.5000 -0.8660
vn -0.0000 0.1736 0.9848
vn 0.0000 -0.1736 -0.9848
vn -0.0000 -0.1736 0.9848
vn 0.0000 0.1736 -0.9848
vn -0.0000 -0.5000 0.8660
vn 0.0000 0.5000 -0.8660
vn 0.0000 -0.7660 0.6428
vn -0.0000 0.7660 -0.6428
vn 0.0000 -0.9397 0.3420
vn -0.0000 0.9397 -0.3420
vn 0.0000 -1.0000 -0.0000
vn 1.0000 0.0000 -0.0000
vn 0.7071 -0.0000 -0.7071
vn -0.0000 -0.0000 -1.0000
vn 0.0000 -0.0000 -1.0000
vn -0.7071 -0.0000 -0.7071
vn -1.0000 0.0000 0.0000
vn -0.7071 0.0000 0.7071
vn 0.0000 0.0000 1.0000
vn 0.7071 0.0000 0.7071
vn -0.0000 1.0000 -0.0000
# 46 vertex normals

vt 0.7500 0.0000 1.0000
vt 0.8125 0.0000 1.0000
vt 0.8125 1.0000 1.0000
vt 0.7500 1.0000 1.0000
vt 0.8750 0.0000 1.0000
vt 0.8750 1.0000 1.0000
vt 0.9375 0.0000 1.0000
vt 0.9375 1.0000 1.0000
vt 1.0000 0.0000 1.0000
vt 1.0000 1.0000 1.0000
vt 0.0000 0.0000 1.0000
vt 0.0625 0.0000 1.0000
vt 0.0625 1.0000 1.0000
vt 0.0000 1.0000 1.0000
vt 0.1250 0.0000 1.0000
vt 0.1250 1.0000 1.0000
vt 0.1875 0.0000 1.0000
vt 0.1875 1.0000 1.0000
vt 0.2500 0.0000 1.0000
vt 0.2500 1.0000 1.0000
vt 0.3125 0.0000 1.0000
vt 0.3125 1.0000 1.0000
vt 0.3750 0.0000 1.0000
vt 0.3750 1.0000 1.0000
vt 0.4375 0.0000 1.0000
vt 0.4375 1.0000 1.0000
vt 0.5000 0.0000 1.0000
vt 0.5000 1.0000 1.0000
vt 0.5625 0.0000 1.0000
vt 0.5625 1.0000 1.0000
vt 0.6250 0.0000 1.0000
vt 0.6250 1.0000 1.0000
vt 0.6875 0.0000 1.0000
vt 0.6875 1.0000 1.0000
vt 0.8536 0.8536 -0.2500
vt 0.9619 0.6913 -0.2500
vt 1.0000 0.5000 -0.2500
vt 0.5000 1.0000 -0.2500
vt 0.9619 0.3087 -0.2500
vt 0.8536 0.1464 -0.2500
vt 0.5000 0.0000 -0.2500
vt 0.6913 0.0381 -0.2500
vt 0.3087 0.0381 -0.2500
vt 0.1464 0.1464 -0.2500
vt 0.0000 0.5000 -0.2500
vt 0.0381 0.3087 -0.2500
vt 0.0381 0.6913 -0.2500
vt 0.1464 0.8536 -0.2500
vt 0.3087 0.9619 -0.2500
vt 0.6913 0.9619 -0.2500
vt 0.3087 0.9619 0.2500
vt 0.1464 0.8536 0.2500
vt 0.0381 0.6913 0.2500
vt 0.6913 0.9619 0.2500
vt 0.0000 0.5000 0.2500
vt 0.0381 0.3087 0.2500
vt 0.3087 0.0381 0.2500
vt 0.1464 0.1464 0.2500
vt 0.5000 0.0000 0.2500
vt 0.6913 0.0381 0.2500
vt 0.9619 0.3087 0.2500
vt 0.8536 0.1464 0.2500
vt 1.0000 0.5000 0.2500
vt 0.9619 0.6913 0.2500
vt 0.8536 0.8536 0.2500
vt 0.5000 1.0000 0.2500
vt 0.0000 0.0000 0.0000
vt 0.2500 0.0000 0.0000
vt 0.2500 0.0556 0.0000
vt 0.0000 0.0556 0.0000
vt 0.5000 0.0000 0.0000
vt 0.5000 0.0556 0.0000
vt 0.7500 0.0000 0.0000
vt 0.7500 0.0556 0.0000
vt 1.0000 0.0000 0.0000
vt 1.0000 0.0556 0.0000
vt 0.2500 0.1111 0.0000
vt 0.0000 0.1111 0.0000
vt 0.5000 0.1111 0.0000
vt 0.7500 0.1111 0.0000
vt 1.0000 0.1111 0.0000
vt 0.2500 0.1667 0.0000
vt 0.0000 0.1667 0.0000
vt 0.5000 0.1667 0.0000
vt 0.7500 0.1667 0.0000
vt 1.0000 0.1667 0.0000
vt 0.2500 0.2222 0.0000
vt 0.0000 0.2222 0.0000
vt 0.5000 0.2222 0.0000
vt 0.7500 0.2222 0.0000
vt 1.0000 0.2222 0.0000
vt 0.2500 0.2778 0.0000
vt 0.0000 0.2778 0.0000
vt 0.5000 0.2778 0.0000
vt 0.7500 0.2778 0.0000
vt 1.0000 0.2778 0.0000
vt 0.2500 0.3333 0.0000
vt 0.0000 0.3333 0.0000
vt 0.5000 0.3333 0.0000
vt 0.7500 0.3333 0.0000
vt 1.0000 0.3333 0.0000
vt 0.2500 0.3889 0.0000
vt 0.0000 0.3889 0.0000
vt 0.5000 0.3889 0.0000
vt 0.7500 0.3889 0.0000
vt 1.0000 0.3889 0.0000
vt 0.2500 0.4444 0.0000
vt 0.0000 0.4444 0.0000
vt 0.5000 0.4444 0.0000
vt 0.7500 0.4444 0.0000
vt 1.0000 0.4444 0.0000
vt 0.2500 0.5000 0.0000
vt 0.0000 0.5000 0.0000
vt 0.5000 0.5000 0.0000
vt 0.7500 0.5000 0.0000
vt 1.0000 0.5000 0.0000
vt 0.2500 0.5556 0.0000
vt 0.0000 0.5556 0.0000
vt 0.5000 0.5556 0.0000
vt 0.7500 0.5556 0.0000
vt 1.0000 0.5556 0.0000
vt 0.2500 0.6111 0.0000
vt 0.0000 0.6111 0.0000
vt 0.5000 0.6111 0.0000
vt 0.7500 0.6111 0.0000
vt 1.0000 0.6111 0.0000
vt 0.2500 0.6667 0.0000
vt 0.0000 0.6667 0.0000
vt 0.5000 0.6667 0.0000
vt 0.7500 0.6667 0.0000
vt 1.0000 0.6667 0.0000
vt 0.2500 0.7222 0.0000
vt 0.0000 0.7222 0.0000
vt 0.5000 0.7222 0.0000
vt 0.7500 0.7222 0.0000
vt 1.0000 0.7222 0.0000
vt 0.2500 0.7778 0.0000
vt 0.0000 0.7778 0.0000
vt 0.5000 0.7778 0.0000
vt 0.7500 0.7778 0.0000
vt 1.0000 0.7778 0.0000
vt 0.2500 0.8333 0.0000
vt 0.0000 0.8333 0.0000
vt 0.5000 0.8333 0.0000
vt 0.7500 0.8333 0.0000
vt 1.0000 0.8333 0.0000
vt 0.2500 0.8889 0.0000
vt 0.0000 0.8889 0.0000
vt 0.5000 0.8889 0.0000
vt 0.7500 0.8889 0.0000
vt 1.0000 0.8889 0.0000
vt 0.2500 0.9444 0.0000
vt 0.0000 0.9444 0.0000
vt 0.5000 0.9444 0.0000
vt 0.7500 0.9444 0.0000
vt 1.0000 0.9444 0.0000
vt 0.2500 1.0000 0.0000
vt 0.0000 1.0000 0.0000
vt 0.5000 1.0000 0.0000
vt 0.7500 1.0000 0.0000
vt 1.0000 1.0000 0.0000
vt 0.1161 0.0000 0.4142
vt -0.1250 0.0000 1.0000
vt -0.1250 1.0000 1.0000
vt 0.7803 1.0000 0.4142
vt 0.2197 1.0000 -0.4142
vt 0.5214 1.0000 -0.4142
vt 0.2500 1.0000 -1.0000
vt 0.1250 1.0000 -1.0000
# 169 texture coords

g tongxing01
usemtl Mat3d66_636233_49_567
s 8
f 1/1/1 2/2/2 3/3/2 4/4/1 
f 2/2/2 5/5/3 6/6/3 3/3/2 
f 5/5/3 7/7/4 8/8/4 6/6/3 
f 7/7/4 9/9/5 10/10/5 8/8/4 
f 9/11/5 11/12/6 12/13/6 10/14/5 
f 11/12/6 13/15/7 14/16/8 12/13/6 
f 13/15/7 15/17/9 16/18/9 14/16/8 
f 15/17/9 17/19/10 18/20/10 16/18/9 
f 17/19/10 19/21/11 20/22/11 18/20/10 
f 19/21/11 21/23/12 22/24/12 20/22/11 
f 21/23/12 23/25/13 24/26/13 22/24/12 
f 23/25/13 25/27/14 26/28/14 24/26/13 
f 25/27/14 27/29/15 28/30/15 26/28/14 
f 27/29/15 29/31/16 30/32/16 28/30/15 
f 29/31/16 31/33/17 32/34/17 30/32/16 
f 31/33/17 1/1/1 4/4/1 32/34/17 
s 1
f 29/35/18 27/36/18 25/37/18 1/38/18 
f 25/37/18 23/39/18 21/40/18 17/41/18 
f 21/40/18 19/42/18 17/41/18 
f 17/41/18 15/43/18 13/44/18 9/45/18 
f 13/44/18 11/46/18 9/45/18 
f 9/45/18 7/47/18 5/48/18 1/38/18 
f 5/48/18 2/49/18 1/38/18 
f 17/41/18 9/45/18 1/38/18 25/37/18 
f 31/50/18 29/35/18 1/38/18 
f 3/51/19 6/52/19 8/53/19 32/54/19 
f 8/53/19 10/55/19 12/56/19 16/57/19 
f 12/56/19 14/58/19 16/57/19 
f 16/57/19 18/59/19 20/60/19 24/61/19 
f 20/60/19 22/62/19 24/61/19 
f 24/61/19 26/63/19 28/64/19 32/54/19 
f 28/64/19 30/65/19 32/54/19 
f 16/57/19 24/61/19 32/54/19 8/53/19 
f 4/66/19 3/51/19 32/54/19 
usemtl Mat3d66_636233_6_71
s 2
f 33/67/5 34/68/5 35/69/20 36/70/20 
s 4
f 34/68/19 37/71/19 38/72/19 35/69/19 
s 2
f 37/71/14 39/73/14 40/74/21 38/72/21 
s 4
f 39/73/18 33/75/18 36/76/18 40/74/18 
s 2
f 36/70/20 35/69/20 41/77/22 42/78/22 
s 4
f 35/69/19 38/72/19 43/79/19 41/77/19 
s 2
f 38/72/21 40/74/21 44/80/23 43/79/23 
s 4
f 40/74/18 36/76/18 42/81/18 44/80/18 
s 2
f 42/78/22 41/77/22 45/82/24 46/83/24 
s 4
f 41/77/19 43/79/19 47/84/19 45/82/19 
s 2
f 43/79/23 44/80/23 48/85/25 47/84/25 
s 4
f 44/80/18 42/81/18 46/86/18 48/85/18 
s 2
f 46/83/24 45/82/24 49/87/26 50/88/26 
s 4
f 45/82/19 47/84/19 51/89/19 49/87/19 
s 2
f 47/84/25 48/85/25 52/90/27 51/89/27 
s 4
f 48/85/18 46/86/18 50/91/18 52/90/18 
s 2
f 50/88/26 49/87/26 53/92/28 54/93/28 
s 4
f 49/87/19 51/89/19 55/94/19 53/92/19 
s 2
f 51/89/27 52/90/27 56/95/29 55/94/29 
s 4
f 52/90/18 50/91/18 54/96/18 56/95/18 
s 2
f 54/93/28 53/92/28 57/97/30 58/98/30 
s 4
f 53/92/19 55/94/19 59/99/19 57/97/19 
s 2
f 55/94/29 56/95/29 60/100/31 59/99/31 
s 4
f 56/95/18 54/96/18 58/101/18 60/100/18 
s 2
f 58/98/30 57/97/30 61/102/32 62/103/32 
s 4
f 57/97/19 59/99/19 63/104/19 61/102/19 
s 2
f 59/99/31 60/100/31 64/105/33 63/104/33 
s 4
f 60/100/18 58/101/18 62/106/18 64/105/18 
s 2
f 62/103/32 61/102/32 65/107/34 66/108/34 
s 4
f 61/102/19 63/104/19 67/109/19 65/107/19 
s 2
f 63/104/33 64/105/33 68/110/35 67/109/35 
s 4
f 64/105/18 62/106/18 66/111/18 68/110/18 
s 2
f 66/108/34 65/107/34 69/112/36 70/113/36 
s 4
f 65/107/19 67/109/19 71/114/19 69/112/19 
s 2
f 67/109/35 68/110/35 72/115/5 71/114/5 
s 4
f 68/110/18 66/111/18 70/116/18 72/115/18 
s 2
f 70/113/36 69/112/36 73/117/21 74/118/21 
s 4
f 69/112/19 71/114/19 75/119/19 73/117/19 
s 2
f 71/114/5 72/115/5 76/120/20 75/119/20 
s 4
f 72/115/18 70/116/18 74/121/18 76/120/18 
s 2
f 74/118/21 73/117/21 77/122/23 78/123/23 
s 4
f 73/117/19 75/119/19 79/124/19 77/122/19 
s 2
f 75/119/20 76/120/20 80/125/22 79/124/22 
s 4
f 76/120/18 74/121/18 78/126/18 80/125/18 
s 2
f 78/123/23 77/122/23 81/127/25 82/128/25 
s 4
f 77/122/19 79/124/19 83/129/19 81/127/19 
s 2
f 79/124/22 80/125/22 84/130/24 83/129/24 
s 4
f 80/125/18 78/126/18 82/131/18 84/130/18 
s 2
f 82/128/25 81/127/25 85/132/27 86/133/27 
s 4
f 81/127/19 83/129/19 87/134/19 85/132/19 
s 2
f 83/129/24 84/130/24 88/135/26 87/134/26 
s 4
f 84/130/18 82/131/18 86/136/18 88/135/18 
s 2
f 86/133/27 85/132/27 89/137/29 90/138/29 
s 4
f 85/132/19 87/134/19 91/139/19 89/137/19 
s 2
f 87/134/26 88/135/26 92/140/28 91/139/28 
s 4
f 88/135/18 86/136/18 90/141/18 92/140/18 
s 2
f 90/138/29 89/137/29 93/142/31 94/143/31 
s 4
f 89/137/19 91/139/19 95/144/19 93/142/19 
s 2
f 91/139/28 92/140/28 96/145/30 95/144/30 
s 4
f 92/140/18 90/141/18 94/146/18 96/145/18 
s 2
f 94/143/31 93/142/31 97/147/33 98/148/33 
s 4
f 93/142/19 95/144/19 99/149/19 97/147/19 
s 2
f 95/144/30 96/145/30 100/150/32 99/149/32 
s 4
f 96/145/18 94/146/18 98/151/18 100/150/18 
s 2
f 98/148/33 97/147/33 101/152/35 102/153/35 
s 4
f 97/147/19 99/149/19 103/154/19 101/152/19 
s 2
f 99/149/32 100/150/32 104/155/34 103/154/34 
s 4
f 100/150/18 98/151/18 102/156/18 104/155/18 
s 2
f 102/153/35 101/152/35 34/157/5 33/158/5 
s 4
f 101/152/19 103/154/19 37/159/19 34/157/19 
s 2
f 103/154/34 104/155/34 39/160/14 37/159/14 
s 4
f 104/155/18 102/156/18 33/161/18 39/160/18 
usemtl Mat3d66_636233_13_398
s 1
f 105/27/14 106/23/14 107/19/14 108/162/14 
f 107/19/14 109/15/14 110/11/14 108/162/14 
f 110/11/14 111/163/14 108/162/14 
f 112/31/14 105/27/14 108/162/14 
s 8
f 108/1/37 111/5/38 113/6/38 114/4/18 
f 111/163/38 110/11/39 115/14/40 113/164/38 
f 110/11/39 109/15/41 116/16/41 115/14/40 
f 109/15/41 107/19/42 117/20/42 116/16/41 
f 107/19/42 106/23/43 118/24/43 117/20/42 
f 106/23/43 105/27/1 119/28/44 118/24/43 
f 105/27/1 112/31/45 120/32/45 119/28/44 
f 112/31/45 108/1/37 114/4/18 120/32/45 
s 1
f 114/4/46 113/6/46 115/165/46 119/166/46 
f 115/165/46 116/167/46 117/168/46 119/166/46 
f 117/168/46 118/169/46 119/166/46 
f 120/32/46 114/4/46 119/166/46 
# 110 polygons - 12 triangles

